<svg id="visual" viewBox="0 0 900 600" width="900" height="600" xmlns="http://www.w3.org/2000/svg" xmlns:xlink="http://www.w3.org/1999/xlink" version="1.1"><rect width="900" height="600" fill="#001829"></rect><g><g transform="translate(492 257)"><path d="M0 -126.6L109.6 -63.3L109.6 63.3L0 126.6L-109.6 63.3L-109.6 -63.3Z" fill="none" stroke="#297EA6" stroke-width="2"></path></g><g transform="translate(93 472)"><path d="M0 -48L41.6 -24L41.6 24L0 48L-41.6 24L-41.6 -24Z" fill="none" stroke="#297EA6" stroke-width="2"></path></g><g transform="translate(818 61)"><path d="M0 -93L80.5 -46.5L80.5 46.5L0 93L-80.5 46.5L-80.5 -46.5Z" fill="none" stroke="#297EA6" stroke-width="2"></path></g><g transform="translate(765 582)"><path d="M0 -95L82.3 -47.5L82.3 47.5L0 95L-82.3 47.5L-82.3 -47.5Z" stroke="#297EA6" fill="none" stroke-width="2"></path></g><g transform="translate(11 144)"><path d="M0 -97L84 -48.5L84 48.5L0 97L-84 48.5L-84 -48.5Z" stroke="#297EA6" fill="none" stroke-width="2"></path></g><g transform="translate(367 568)"><path d="M0 -86L74.5 -43L74.5 43L0 86L-74.5 43L-74.5 -43Z" stroke="#297EA6" fill="none" stroke-width="2"></path></g><g transform="translate(272 85)"><path d="M0 -104L90.1 -52L90.1 52L0 104L-90.1 52L-90.1 -52Z" stroke="#297EA6" fill="none" stroke-width="2"></path></g><g transform="translate(888 323)"><path d="M0 -92L79.7 -46L79.7 46L0 92L-79.7 46L-79.7 -46Z" stroke="#297EA6" fill="none" stroke-width="2"></path></g><g transform="translate(535 3)"><path d="M0 -103L89.2 -51.5L89.2 51.5L0 103L-89.2 51.5L-89.2 -51.5Z" stroke="#297EA6" fill="none" stroke-width="2"></path></g></g></svg>